<svg xmlns="http://www.w3.org/2000/svg" viewBox="0 0 64 64">
  <defs>
    <linearGradient id="cyberGreen" x1="0%" y1="0%" x2="100%" y2="100%">
      <stop offset="0%" style="stop-color:#86efac;stop-opacity:1" /> <stop offset="100%" style="stop-color:#15803d;stop-opacity:1" /> </linearGradient>
    
    <filter id="glow" x="-40%" y="-40%" width="180%" height="180%">
      <feGaussianBlur stdDeviation="1.2" result="coloredBlur"/>
      <feMerge>
        <feMergeNode in="coloredBlur"/>
        <feMergeNode in="SourceGraphic"/>
      </feMerge>
    </filter>
  </defs>

  <rect width="64" height="64" rx="16" fill="#020617" />

  <g filter="url(#glow)" stroke="url(#cyberGreen)" stroke-width="3.5" stroke-linecap="round" fill="none">
    
    <path d="M32 58 V 12" />

    <path d="M32 50 H 14 L 10 44" />
    <path d="M32 50 H 50 L 54 44" />
    
    <path d="M32 40 H 18 L 15 36" />
    <path d="M32 40 H 46 L 49 36" />
    
    <path d="M32 30 H 22 L 20 27" />
    <path d="M32 30 H 42 L 44 27" />
    
    <path d="M32 20 H 26 L 24 18" />
    <path d="M32 20 H 38 L 40 18" />
  </g>

  <g fill="#4ade80" filter="url(#glow)">
    <circle cx="10" cy="44" r="2.5" />
    <circle cx="54" cy="44" r="2.5" />
    <circle cx="15" cy="36" r="2.5" />
    <circle cx="49" cy="36" r="2.5" />
    <circle cx="20" cy="27" r="2" />
    <circle cx="44" cy="27" r="2" />
  </g>

  <rect x="29" y="6" width="6" height="6" fill="#facc15" filter="url(#glow)" transform="rotate(45 32 9)" />
</svg>